<?xml version="1.0" encoding="UTF-8"?>
<svg xmlns="http://www.w3.org/2000/svg" width="96.757" height="128.932" viewBox="0 0 90.709 120.874">
	<path d="M60.86 932.849a21.803 21.803 0 0 1-5.429.909 35.119 35.119 0 0 0-5.392.626c-1.749.344-2.989.704-3.72 1.08-.732.375-1.972 1.273-3.72 2.693-1.748 1.42-2.99 2.595-3.725 3.525-.735.931-1.452 2.284-2.15 4.06-.698 1.775-1.136 3.317-1.313 4.625a16.425 16.425 0 0 0-.016 4.114c.167 1.435.471 2.714.912 3.837.441 1.123 1.485 2.684 3.13 4.684 1.645 2 2.957 3.282 3.936 3.85a21.109 21.109 0 0 1 2.902 2.04c.955.794 1.83 1.434 2.624 1.919.793.485 1.877 1 3.25 1.546 1.375.546 3.026.984 4.955 1.315 1.929.331 3.73.528 5.401.591 1.672.063 3.096.003 4.272-.183 1.177-.185 3.11-.706 5.802-1.564 2.692-.857 4.82-1.76 6.383-2.707 1.564-.947 2.845-1.574 3.845-1.88 1-.307 1.636-.563 1.908-.769.272-.206.573-.579.904-1.119.331-.54.989-2.048 1.972-4.524.984-2.475 1.54-4.286 1.668-5.43a13.732 13.732 0 0 0 0-3.249c-.129-1.022-.382-1.948-.758-2.78-.377-.832-1.012-1.956-1.905-3.372-.892-1.416-1.834-2.577-2.823-3.482a31.233 31.233 0 0 0-3.439-2.697c-1.303-.893-3.305-1.977-6.007-3.255-2.702-1.277-5.386-2.293-8.052-3.048-2.665-.754-4.521-1.144-5.569-1.17a7.228 7.228 0 0 0-3.073.612m-12.621 19.929.474 5.694m13.57-1.709.095 5.24m-19.738 4.782c-.38.176-.833.766-1.361 1.77-.53 1.005-1.475 2.248-2.837 3.73-1.362 1.48-3.011 3.05-4.948 4.708-1.937 1.659-4.172 3.353-6.705 5.084-2.533 1.732-4.55 3.035-6.049 3.91-1.5.876-2.847 1.58-4.043 2.11-1.196.532-2.862 1.125-4.996 1.78-2.135.655-3.756 1.387-4.863 2.195-1.107.809-1.718 1.355-1.833 1.638-.114.282-.145.772-.092 1.47.054.696.2 1.318.438 1.867.238.548.411.88.52.996.107.115.378.215.812.299.433.084 1.757-.069 3.97-.457a71.622 71.622 0 0 0 6.66-1.502c2.226-.613 3.62-1.027 4.184-1.24.563-.214 1.494-.76 2.792-1.636 1.298-.876 2.508-1.542 3.63-1.997a32.904 32.904 0 0 0 3.459-1.66c1.184-.65 2.926-1.734 5.226-3.252 2.3-1.518 3.826-2.728 4.577-3.63.75-.9.964-1.132.64-.694-.326.438-1.096.969-2.313 1.593m30.367 5.126c.526 11.453 1.072 19.808 1.638 25.064a340.498 340.498 0 0 1 1.315 15.438c.312 5.036.632 8.838.962 11.406.33 2.568.495 4.437.494 5.608-.001 1.17-.073 1.932-.217 2.284-.143.352-.426.63-.849.833-.422.203-1.334.299-2.736.288-1.403-.011-2.204-.083-2.406-.216-.2-.133-.381-.38-.54-.741-.16-.362-.44-1.31-.84-2.843-.399-1.533-.762-3.481-1.088-5.845-.327-2.363-.7-4.362-1.117-5.996-.418-1.634-.659-4.07-.724-7.307-.065-3.238-.199-5.422-.4-6.553-.202-1.13-.617-1.789-1.247-1.975-.629-.187-2.788-.118-6.476.205-3.688.322-6.161.335-7.419.039-1.257-.297-2.033-.556-2.327-.776-.294-.22-.431-.444-.411-.672m27.804-42.591c.968.908 2.318 2.82 4.05 5.737 1.733 2.916 3.706 7.054 5.92 12.412 2.212 5.358 3.722 9.27 4.53 11.734.807 2.464 1.335 4.372 1.584 5.725.249 1.352.388 2.682.418 3.99.03 1.308-.184 2.14-.64 2.497-.458.357-.878.528-1.263.513-.384-.015-.991-.266-1.821-.752-.83-.485-1.836-1.374-3.019-2.664s-1.945-2.441-2.287-3.452c-.342-1.011-.777-1.732-1.304-2.164-.526-.431-1.824-2.572-3.893-6.422-2.068-3.85-3.279-6.46-3.632-7.831a14.605 14.605 0 0 0-1.584-3.835" style="fill:none;stroke:#1a1a1a;stroke-width:3;stroke-linecap:round;stroke-linejoin:round;stroke-miterlimit:10;stroke-dasharray:none;stroke-opacity:1" transform="translate(-.146 -931.343)"/>
	<path d="M39.128 983.07c-1.445 5.872-2.504 10.986-3.176 15.34-.672 4.354-1.355 7.746-2.05 10.176-.694 2.43-1.419 5.3-2.173 8.61-.755 3.308-1.613 6.399-2.576 9.27-.962 2.872-1.726 5.632-2.29 8.28-.564 2.647-1.06 5.6-1.485 8.86-.426 3.258-.624 5.1-.593 5.527.03.426.182.746.456.959.274.212 1.087.253 2.44.12 1.351-.131 2.286-.401 2.804-.809a5.998 5.998 0 0 0 1.27-1.341c.33-.487.835-1.533 1.516-3.139.681-1.606 1.392-3.81 2.134-6.614.742-2.803 1.507-5.347 2.295-7.632.789-2.284 1.496-4.07 2.124-5.359.627-1.288 1.565-4.02 2.815-8.198" style="fill:none;stroke:#1a1a1a;stroke-width:3;stroke-linecap:round;stroke-linejoin:round;stroke-miterlimit:10;stroke-dasharray:none;stroke-opacity:1" transform="translate(-.146 -931.343)"/>
	<path d="M35.522 1005.618c.082.383.34.644.775.783s.92.397 1.454.776c.535.38 1.684.806 3.448 1.279 1.764.473 5.69.706 11.779.699 6.088-.01 9.755-.133 10.999-.378 1.244-.245 2.292-.766 3.146-1.564" style="fill:none;stroke:#1a1a1a;stroke-width:3;stroke-linecap:round;stroke-linejoin:round;stroke-miterlimit:10;stroke-dasharray:none;stroke-opacity:1" transform="translate(-.146 -931.343)"/>
</svg>
