<?xml version="1.0" encoding="UTF-8"?>
<svg xmlns="http://www.w3.org/2000/svg" width="642.051" height="5.407" viewBox="0 0 642.051 5.407">
	<path d="M1.668 1049.733c5.105-.23 16.43-.109 33.976.365 17.546.473 31.346.66 41.4.563 10.054-.097 15.895-.107 17.525-.028 1.63.079 9.716.101 24.257.068 14.542-.034 24.659-.144 30.352-.332 5.694-.188 10.542-.286 14.546-.295 4.003-.01 9.81-.184 17.42-.527 7.61-.343 12.923-.486 15.94-.43 3.018.056 7.351.282 13 .678 5.648.396 15.355.463 29.122.201 13.767-.261 23.864-.295 30.292-.103 6.428.193 17.022.308 31.783.347 14.76.04 28.37 0 40.829-.117 12.46-.117 22.048-.315 28.767-.593 6.72-.278 14.79-.33 24.211-.156 9.422.174 26.803.194 52.143.06 25.34-.136 43.5-.175 54.483-.12 10.983.057 23.804-.051 38.464-.323 14.66-.271 25.89-.402 33.694-.39 7.803.01 17.779.238 29.927.683 12.148.445 19.344.61 21.589.497 2.244-.113 7.243-.204 14.995-.272" style="fill:none;stroke:#1a1a1a;stroke-width:2;stroke-linecap:round;stroke-linejoin:round;stroke-miterlimit:10;stroke-dasharray:none;stroke-opacity:1" transform="translate(0 -1046.955)"/>
</svg>
